<svg version="1.1" xmlns="http://www.w3.org/2000/svg" viewBox="0 0 681.6515970587153 651.2382768026314" width="1363.3031941174306" height="1302.4765536052628" filter="invert(93%) hue-rotate(180deg)">
  <!-- svg-source:excalidraw -->
  
  <defs>
    <style class="style-fonts">
      @font-face {
        font-family: "Virgil";
        src: url("https://excalidraw.com/Virgil.woff2");
      }
      @font-face {
        font-family: "Cascadia";
        src: url("https://excalidraw.com/Cascadia.woff2");
      }
      @font-face {
        font-family: "Assistant";
        src: url("https://excalidraw.com/Assistant-Regular.woff2");
      }
    </style>
    
  </defs>
  <rect x="0" y="0" width="681.6515970587153" height="651.2382768026314" fill="#ffffff"></rect><g stroke-linecap="round" transform="translate(10 102.94984671189366) rotate(0 64.61212340608421 211.78418227549824)"><path d="M32 0 C56.57 1.02, 83.52 0.6, 97.22 0 M32 0 C46.22 0.53, 59.51 0.51, 97.22 0 M97.22 0 C116.63 -0.95, 130.75 10.99, 129.22 32 M97.22 0 C117.76 -1.31, 128.41 11.48, 129.22 32 M129.22 32 C131.72 123.14, 132.53 213.82, 129.22 391.57 M129.22 32 C127.82 117.64, 128.02 202.55, 129.22 391.57 M129.22 391.57 C127.9 414.2, 120.32 422.3, 97.22 423.57 M129.22 391.57 C127.69 412.27, 119.4 422.73, 97.22 423.57 M97.22 423.57 C83 425.12, 72.28 425.51, 32 423.57 M97.22 423.57 C72.3 424.42, 45.66 424.33, 32 423.57 M32 423.57 C8.82 424.86, 1.32 412.14, 0 391.57 M32 423.57 C11.1 423.95, -0.21 412.27, 0 391.57 M0 391.57 C-0.22 249.6, 1.24 105.14, 0 32 M0 391.57 C0.01 291.57, -0.22 191.92, 0 32 M0 32 C1.42 10.94, 10.9 1.43, 32 0 M0 32 C0.15 10.53, 8.9 0.98, 32 0" stroke="#1e1e1e" stroke-width="1" fill="none"></path></g><g stroke-linecap="round" transform="translate(61.68969872486741 527.9540362274697) rotate(0 11.486599716637215 54.56134865402666)"><path d="M5.74 0 C11.2 -0.21, 15.81 0.84, 17.23 0 M5.74 0 C8.75 -0.29, 11.4 -0.06, 17.23 0 M17.23 0 C20.57 -1.37, 23.3 0.36, 22.97 5.74 M17.23 0 C19.2 0.5, 24.28 0.37, 22.97 5.74 M22.97 5.74 C22.35 38.86, 22.82 73.9, 22.97 103.38 M22.97 5.74 C23.1 36.39, 23.07 67.4, 22.97 103.38 M22.97 103.38 C21.21 107.36, 20.81 107.59, 17.23 109.12 M22.97 103.38 C22.77 109.41, 18.82 109.97, 17.23 109.12 M17.23 109.12 C13.43 108.15, 10.51 110.04, 5.74 109.12 M17.23 109.12 C13.71 109.34, 9.99 109.23, 5.74 109.12 M5.74 109.12 C3.88 109.94, -0.55 107.35, 0 103.38 M5.74 109.12 C2.82 108.81, -1.14 109.08, 0 103.38 M0 103.38 C1.19 82.36, 0.82 63.48, 0 5.74 M0 103.38 C0.13 77.53, 1.14 52.23, 0 5.74 M0 5.74 C1.07 2.21, 1.45 1.47, 5.74 0 M0 5.74 C-0.52 2.72, 0.62 1.84, 5.74 0" stroke="#1e1e1e" stroke-width="1" fill="none"></path></g><g stroke-linecap="round" transform="translate(230.56307255784918 10) rotate(0 137.8391965996463 205.3229699348898)"><path d="M32 0 C104.15 2.3, 175.33 2.77, 243.68 0 M32 0 C98.47 0.06, 165.91 1.05, 243.68 0 M243.68 0 C265.27 0.82, 274.56 11.48, 275.68 32 M243.68 0 C266.19 0.68, 277.07 9.12, 275.68 32 M275.68 32 C277 116.99, 276.97 204.48, 275.68 378.65 M275.68 32 C274.61 157.29, 274.62 281.84, 275.68 378.65 M275.68 378.65 C274.86 398.31, 263.71 411.9, 243.68 410.65 M275.68 378.65 C273.97 401.97, 263.95 411.29, 243.68 410.65 M243.68 410.65 C171.52 409.5, 99.06 409.76, 32 410.65 M243.68 410.65 C190.31 408.75, 137.91 408.61, 32 410.65 M32 410.65 C11.13 408.81, -0.34 398.34, 0 378.65 M32 410.65 C9.92 410.52, 1.8 401.34, 0 378.65 M0 378.65 C1.01 250.8, 2.34 122.36, 0 32 M0 378.65 C-0.16 275.4, -0.89 172.54, 0 32 M0 32 C1.55 10.46, 11.95 -1.97, 32 0 M0 32 C-0.41 12.78, 12.89 0.67, 32 0" stroke="#1e1e1e" stroke-width="1" fill="none"></path></g><g stroke-linecap="round" transform="translate(293.7393709993538 419.21011490519993) rotate(0 73.22707319356209 37.331449079070865)"><path d="M18.67 0 C58.03 -0.1, 101.6 0.48, 127.79 0 M18.67 0 C51.04 0.01, 84.3 0.02, 127.79 0 M127.79 0 C142.14 -0.48, 145.63 6.61, 146.45 18.67 M127.79 0 C138.1 -2.26, 147.35 5.59, 146.45 18.67 M146.45 18.67 C145.98 32.87, 144.71 48.1, 146.45 56 M146.45 18.67 C146.29 31.88, 146.58 44.34, 146.45 56 M146.45 56 C148.18 70.34, 139.42 76.65, 127.79 74.66 M146.45 56 C146.57 68.31, 141.5 76.01, 127.79 74.66 M127.79 74.66 C87.88 76.06, 43.84 76.39, 18.67 74.66 M127.79 74.66 C88.43 75.63, 46.16 76.49, 18.67 74.66 M18.67 74.66 C5.17 73.04, -0.57 67.27, 0 56 M18.67 74.66 C5.37 73.58, 1.25 69.5, 0 56 M0 56 C-0.41 46.49, -1.16 40.02, 0 18.67 M0 56 C-0.45 43.48, 0.04 30.47, 0 18.67 M0 18.67 C1.36 6.17, 5.74 -0.89, 18.67 0 M0 18.67 C1.7 7.99, 7.65 1.21, 18.67 0" stroke="#1e1e1e" stroke-width="1" fill="none"></path></g><g stroke-linecap="round" transform="translate(339.68576986590244 495.30883802792135) rotate(0 25.844849362433706 30.152324256172648)"><path d="M12.92 0 C20.43 -0.56, 25.17 -2.02, 38.77 0 M12.92 0 C22.75 0.11, 32.18 0.31, 38.77 0 M38.77 0 C47.76 1.76, 53.3 4.54, 51.69 12.92 M38.77 0 C48.42 -1.66, 52.18 4.14, 51.69 12.92 M51.69 12.92 C50.2 19.44, 52.1 29.03, 51.69 47.38 M51.69 12.92 C51.94 23.68, 51.24 32.8, 51.69 47.38 M51.69 47.38 C51.25 56.19, 46.76 58.74, 38.77 60.3 M51.69 47.38 C50.08 56.57, 47.15 61.81, 38.77 60.3 M38.77 60.3 C30.97 59.3, 18.82 60.55, 12.92 60.3 M38.77 60.3 C31.43 60.68, 25.16 59.4, 12.92 60.3 M12.92 60.3 C2.7 59.14, -0.88 57.92, 0 47.38 M12.92 60.3 C3.71 59.52, -2.15 57.22, 0 47.38 M0 47.38 C-1.85 40.45, 1.07 33.11, 0 12.92 M0 47.38 C0.01 34.52, 0.31 22.01, 0 12.92 M0 12.92 C1.5 3.04, 2.31 -0.33, 12.92 0 M0 12.92 C-0.22 2.41, 3.58 1.46, 12.92 0" stroke="#1e1e1e" stroke-width="1" fill="none"></path></g><g stroke-linecap="round"><g transform="translate(340.2231901079705 554.4423152181234) rotate(0 11.366189200120402 18.311279672804403)"><path d="M-0.27 -0.29 C3.51 5.94, 18.71 30.44, 22.5 36.59 M1.79 -1.49 C5.4 5.01, 18.14 31.54, 21.44 38.1" stroke="#1e1e1e" stroke-width="1" fill="none"></path></g></g><mask></mask><g stroke-linecap="round"><g transform="translate(364.21219827903985 591.504379274927) rotate(0 9.367666816387384 -17.66099408957342)"><path d="M-0.52 0.16 C2.67 -5.75, 14.76 -29.6, 18.05 -35.47 M1.41 -0.8 C5.08 -6.51, 17.52 -28.55, 20.41 -34.02" stroke="#1e1e1e" stroke-width="1" fill="none"></path></g></g><mask></mask><g stroke-linecap="round"><g transform="translate(362.11488926862364 594.9981414085722) rotate(0 80.74431128507933 0)"><path d="M-0.88 0.11 C26.11 0.17, 135.25 -0.62, 162.44 -0.51 M0.86 -0.88 C27.72 -0.59, 135.16 0.81, 161.99 0.76" stroke="#1e1e1e" stroke-width="1" fill="none"></path></g></g><mask></mask><g stroke-linecap="round"><g transform="translate(71.99870104665263 638.1869590726844) rotate(0 226.27184906632704 0)"><path d="M-0.17 1.14 C75.53 1.18, 377.7 0.85, 452.97 0.72 M-1.71 0.7 C73.96 0.36, 376.34 -1.21, 452.25 -1.03" stroke="#1e1e1e" stroke-width="1" fill="none"></path></g></g><mask></mask><g transform="translate(540.4182596563716 605.3426526881401) rotate(0 65.61666870117188 17.947812057245642)"><text x="0" y="0" font-family="Virgil, Segoe UI Emoji" font-size="28.71649929159298px" fill="#1e1e1e" text-anchor="start" style="white-space: pre;" direction="ltr" dominant-baseline="text-before-edge">Z-Offset</text></g><g transform="translate(21.800197097774458 309.84665671776173) rotate(0 51.81666564941406 27.724057788882504)"><text x="51.81666564941406" y="0" font-family="Virgil, Segoe UI Emoji" font-size="22.179246231105992px" fill="#1e1e1e" text-anchor="middle" style="white-space: pre;" direction="ltr" dominant-baseline="text-before-edge">CR-Touch</text><text x="51.81666564941406" y="27.72405778888249" font-family="Virgil, Segoe UI Emoji" font-size="22.179246231105992px" fill="#1e1e1e" text-anchor="middle" style="white-space: pre;" direction="ltr" dominant-baseline="text-before-edge">Probe</text></g><g transform="translate(250.72436530122764 179.1015955080229) rotate(0 115.48332977294916 44.50540261547381)"><text x="115.48332977294922" y="0" font-family="Virgil, Segoe UI Emoji" font-size="71.2086441847581px" fill="#1e1e1e" text-anchor="middle" style="white-space: pre;" direction="ltr" dominant-baseline="text-before-edge">Hotend</text></g><g transform="translate(517.3484571505159 459.6587060205876) rotate(0 45.349998474121094 17.947812057245613)"><text x="45.349998474121094" y="0" font-family="Virgil, Segoe UI Emoji" font-size="28.71649929159298px" fill="#1e1e1e" text-anchor="middle" style="white-space: pre;" direction="ltr" dominant-baseline="text-before-edge">Nozzle</text></g><g stroke-linecap="round"><g transform="translate(504.1355636244415 482.81147727647874) rotate(0 -53.79614497692381 38.81494004664131)"><path d="M0.93 1.17 C-16.92 14.04, -90.03 64.4, -108.04 77.24 M-0.04 0.74 C-18.01 13.77, -91.28 66, -109.22 78.57" stroke="#1e1e1e" stroke-width="1" fill="none"></path></g><g transform="translate(504.1355636244415 482.81147727647874) rotate(0 -53.79614497692381 38.81494004664131)"><path d="M-92.14 53.91 C-94 58.82, -100.42 65.84, -109.22 78.57 M-92.14 53.91 C-98.71 63.02, -104.98 71.81, -109.22 78.57" stroke="#1e1e1e" stroke-width="1" fill="none"></path></g><g transform="translate(504.1355636244415 482.81147727647874) rotate(0 -53.79614497692381 38.81494004664131)"><path d="M-80.28 70.66 C-84.8 71.91, -93.87 75.19, -109.22 78.57 M-80.28 70.66 C-90.94 74.05, -101.32 77.03, -109.22 78.57" stroke="#1e1e1e" stroke-width="1" fill="none"></path></g></g><mask></mask><g stroke-linecap="round"><g transform="translate(524.1930389711368 595.3131466399157) rotate(0 0 21.592962959009355)"><path d="M-0.43 -0.2 C-0.45 6.95, 0.38 35.81, 0.43 43 M0.34 -0.78 C0.24 6.44, 0.37 36.24, 0.23 43.6" stroke="#1e1e1e" stroke-width="1" fill="none"></path></g><g transform="translate(524.1930389711368 595.3131466399157) rotate(0 0 21.592962959009355)"><path d="M-7.03 23.27 C-4.48 32.21, -1.55 39.33, 0.23 43.6 M-7.03 23.27 C-5.19 28.18, -3.37 34.12, 0.23 43.6" stroke="#1e1e1e" stroke-width="1" fill="none"></path></g><g transform="translate(524.1930389711368 595.3131466399157) rotate(0 0 21.592962959009355)"><path d="M7.74 23.36 C4.39 32.21, 1.41 39.29, 0.23 43.6 M7.74 23.36 C5.81 28.18, 3.86 34.1, 0.23 43.6" stroke="#1e1e1e" stroke-width="1" fill="none"></path></g></g><mask></mask><g stroke-linecap="round"><g transform="translate(524.6476276650109 637.5898951701865) rotate(0 0 -21.36566861207234)"><path d="M-0.35 0.05 C-0.34 -6.99, 0.29 -35.42, 0.32 -42.52 M0.47 -0.4 C0.41 -7.59, 0.24 -36.46, 0.06 -43.38" stroke="#1e1e1e" stroke-width="1" fill="none"></path></g><g transform="translate(524.6476276650109 637.5898951701865) rotate(0 0 -21.36566861207234)"><path d="M7.65 -23.41 C5.13 -29.83, 2.77 -37.73, 0.06 -43.38 M7.65 -23.41 C4.97 -30.35, 3.02 -36.13, 0.06 -43.38" stroke="#1e1e1e" stroke-width="1" fill="none"></path></g><g transform="translate(524.6476276650109 637.5898951701865) rotate(0 0 -21.36566861207234)"><path d="M-6.96 -23.2 C-4.37 -29.65, -1.62 -37.62, 0.06 -43.38 M-6.96 -23.2 C-4.88 -30.15, -2.07 -36, 0.06 -43.38" stroke="#1e1e1e" stroke-width="1" fill="none"></path></g></g><mask></mask></svg>